<?xml version="1.0" encoding="UTF-8"?>
<svg id="GRAFICA" xmlns="http://www.w3.org/2000/svg" version="1.1" viewBox="0 0 2835 200">
  <defs>
    <style>
      .cls-1 {
        fill: #fff;
        stroke-width: 0px;
      }
    </style>
  </defs>
  <g>
    <path class="cls-1" d="M726.34,61.87v92.19h30.61V62.03c0-.43.35-.78.78-.78h48.72v-17.38h-128.61v17.21h47.72c.43,0,.78.35.78.78Z"/>
    <path class="cls-1" d="M888.36,137.08v-31.49c0-.43.35-.78.78-.78h77.37v-14.2h-77.37c-.43,0-.78-.35-.78-.78v-28.98c0-.43.35-.78.78-.78h81.64v-16.2h-113.03v110.18h113.78v-16.2h-82.39c-.43,0-.78-.35-.78-.78Z"/>
    <path class="cls-1" d="M1129.8,134.93c-4.75,2.19-15.01,3.25-31.35,3.25-13.78,0-22.48-.61-26.61-1.88-5.62-1.76-9.25-5.83-10.82-12.11-1.2-4.79-1.78-14.6-1.78-30.01,0-11.94.67-19.59,2.06-23.38,1.76-4.93,5.75-8.14,11.86-9.54,4.73-1.01,14.59-1.53,29.32-1.53s22.7,1.02,26.62,3.11c4.02,2.14,6.14,7.04,6.32,14.57.01.12.09.46.23,1l.02,1.09h30.29l-.17-1.66c-1.48-14.63-5.75-24.22-12.7-28.48-7.05-4.31-22.63-6.5-46.33-6.5-33.2,0-55.14,3.06-65.18,9.1-9.91,5.96-14.69,18.86-14.2,38.34l.5,20.1c.49,18.73,5.27,30.96,14.2,36.37,9.04,5.48,29.2,8.26,59.9,8.26,27.04,0,44.96-2.36,53.27-7.02,8.15-4.58,12.2-14.46,12.04-29.38h0v-2.92h-30.11v4.25c0,7.67-2.48,12.7-7.36,14.95Z"/>
    <path class="cls-1" d="M1254.73,89.61c-.43,0-.78-.35-.78-.78v-44.95h-30.61v110.18h30.61v-46.96c0-.43.35-.78.78-.78h77.64c.43,0,.78.35.78.78v46.96h30.61V43.88h-30.61v44.95c0,.43-.35.78-.78.78h-77.64Z"/>
    <path class="cls-1" d="M1556.3,136.78c-.15.15-.35.24-.56.24h-1.01c-.25,0-.49-.12-.64-.33l-12.81-18.26c-4.67-6.68-9.15-12.81-13.3-18.23l-43.49-56.31h-52.62v110.18h30.11v-63.38c0-.2-.13-4.17-.75-21.92l-.25-7.2c0-.21.07-.42.22-.57s.35-.24.56-.24h1.01c.25,0,.49.12.64.33l5.53,7.87,5.29,8.06c5.32,7.98,9.03,13.38,11.03,16.04l47.75,61h52.87V43.88h-30.36v63.55l1.01,28.78c0,.21-.07.42-.22.57Z"/>
    <path class="cls-1" d="M1784.04,59.32c-5.22-6.52-12.43-10.93-21.43-13.12-9.12-2.21-25.03-3.33-47.31-3.33-17.78,0-31.58,1.12-41.03,3.33-9.36,2.19-16.54,5.86-21.34,10.92-4.81,5.05-7.82,12.42-8.97,21.92-.33,3.18-.5,11.1-.5,23.53,0,15.66,1.74,26.98,5.19,33.65,3.73,7.47,11.08,12.57,21.86,15.18,9.61,2.43,25.94,3.67,48.56,3.67,18.61,0,33.01-1.18,42.79-3.5,9.67-2.3,16.79-6.21,21.18-11.63,4.24-5.11,6.89-11.97,7.88-20.37.33-2.86.49-10.16.49-21.69,0-10.31-.17-16.98-.49-19.85-.98-7.74-3.3-14.04-6.88-18.71ZM1760.3,102.23c0,16.35-2.1,26.21-6.41,30.14-4.29,3.91-14.94,5.81-32.56,5.81-16.05,0-26.75-.51-31.81-1.52-6.62-1.39-10.95-4.6-12.88-9.52-1.39-3.7-2.07-11.24-2.07-23.07,0-15.61.51-25.87,1.53-30.48,1.58-6.31,5.31-10.33,11.1-11.97,4.12-1.26,13.07-1.87,27.35-1.87,20.08,0,32.4,1.4,37.69,4.28,5.35,2.93,8.07,9.92,8.07,20.78v17.42Z"/>
    <path class="cls-1" d="M1881.87,136.07V43.88h-30.61v110.18h108.76v-17.21h-77.37c-.43,0-.78-.35-.78-.78Z"/>
    <path class="cls-1" d="M2147.61,59.32c-5.22-6.51-12.43-10.93-21.43-13.12-9.12-2.21-25.03-3.33-47.31-3.33-17.78,0-31.58,1.12-41.03,3.33-9.36,2.19-16.54,5.86-21.35,10.92-4.8,5.04-7.82,12.42-8.96,21.92-.33,3.19-.5,10.89-.5,23.53,0,15.66,1.74,26.99,5.19,33.65,3.73,7.47,11.08,12.57,21.86,15.18,9.61,2.43,25.94,3.67,48.56,3.67,18.61,0,33.01-1.18,42.79-3.5,9.67-2.3,16.79-6.21,21.18-11.63,4.24-5.12,6.89-11.97,7.87-20.37.33-2.88.5-10.17.5-21.69,0-10.29-.17-16.96-.5-19.85-.98-7.74-3.3-14.04-6.88-18.71ZM2123.88,102.23c0,16.35-2.1,26.21-6.41,30.14-4.3,3.91-14.95,5.81-32.56,5.81-16.05,0-26.75-.51-31.81-1.52-6.62-1.39-10.95-4.6-12.88-9.52-1.39-3.7-2.06-11.24-2.06-23.07,0-15.84.5-25.81,1.52-30.48,1.58-6.31,5.31-10.33,11.1-11.97,4.12-1.26,13.07-1.87,27.35-1.87,20.08,0,32.4,1.4,37.68,4.28,5.35,2.93,8.07,9.92,8.07,20.78v17.42Z"/>
    <path class="cls-1" d="M2352.99,96.31h-72.33v14.36h41.18c.39,0,.72.29.77.68.17,1.38.26,2.93.26,4.62,0,9.64-2.46,15.93-7.3,18.68-4.77,2.72-15.21,4.04-31.92,4.04-19.08,0-30.8-1.46-35.83-4.47-5.08-3.03-7.75-10.41-7.92-21.92l-.25-14.57.25-11.42c.35-11.77,2.88-19.07,7.76-22.32,4.78-3.19,15.81-4.74,33.72-4.74s28.67.9,33.09,2.74c4.4,1.84,6.95,6.5,7.58,13.84h30.9c-.46-14.02-4.7-23.07-12.61-26.92-8.23-4-27.56-6.03-57.45-6.03-22.1,0-38.1,1.23-47.55,3.66-10.61,2.83-17.88,8.05-21.61,15.51-3.45,6.9-5.2,18.5-5.2,34.5v13.23c0,18.17,4.74,30.38,14.09,36.28,9.45,5.98,29.14,9.01,58.51,9.01s50.3-2.34,59.19-6.95c8.73-4.52,13.15-14.66,13.15-30.13v-13.9c-.16-2.3-.25-4.13-.25-5.4-.1-.34-.22-.97-.24-2.37Z"/>
    <rect class="cls-1" x="2414.33" y="43.88" width="30.61" height="110.18"/>
    <path class="cls-1" d="M2540.18,137.08v-31.49c0-.43.35-.78.78-.78h77.37v-14.2h-77.37c-.43,0-.78-.35-.78-.78v-28.98c0-.43.35-.78.78-.78h81.64v-16.2h-113.03v110.18h113.78v-16.2h-82.39c-.43,0-.78-.35-.78-.78Z"/>
    <path class="cls-1" d="M2801.66,97.32c-7.24-3.68-23.45-6.04-48.18-7.04-15.51-.56-25.59-1.12-29.97-1.68-6.3-.82-10.18-2.29-11.83-4.49-1.29-1.71-1.91-5.16-1.91-10.52,0-6.35,2.53-10.57,7.52-12.53,4.83-1.89,14.62-2.82,29.94-2.82,12.8,0,21.04.96,25.2,2.92,4.3,2.03,6.48,6.15,6.48,12.26v1.57h29.35v-3.41c0-11.39-4.09-18.83-12.49-22.75-8.49-3.95-25.24-5.96-49.8-5.96-27.06,0-45.2,2.17-53.93,6.45-8.55,4.19-12.88,12.98-12.88,26.11,0,11.91,3.62,19.82,10.76,23.52,7.32,3.78,24.24,6.21,50.3,7.2l17.59.67c9.93.34,16.29,1.42,19.46,3.29,3.25,1.93,4.9,5.81,4.9,11.56,0,7.54-2.13,12.45-6.33,14.6-4.08,2.09-13.04,3.1-27.36,3.1-18.54,0-29.61-.87-33.85-2.66-4.4-1.85-6.63-6.86-6.63-14.87v-1.57h-29.35v3.41c0,12.9,4.29,21.42,12.74,25.34,8.64,4.01,27.17,6.04,55.08,6.04s45.43-2.22,53.66-6.61c8.06-4.3,12.15-13.82,12.15-28.29,0-11.58-3.58-19.26-10.63-22.84Z"/>
  </g>
  <g>
    <path class="cls-1" d="M161.59,51.16c-10.45-7.51-27.32-11.16-51.58-11.16H25.81c-1.71,0-3.1,1.39-3.1,3.1v113.8c0,1.71,1.39,3.1,3.1,3.1h85.22c29.98,0,49.22-6.33,58.78-19.33,4.15-5.54,6.61-13.93,7.52-25.73.18-2.92.26-11.42.26-25.26,0-17.92-5.39-30.88-16.01-38.52ZM61.67,65.14h45.01c17.28,0,23.74,3.08,26.12,5.66,2.43,2.63,5.32,9.78,5.32,28.95s-3.15,26.47-5.8,29.25c-2.62,2.75-9.55,6.03-27.69,6.03h-42.96v-69.89Z"/>
    <path class="cls-1" d="M435.02,40h-53.74c-1.11,0-2.14.6-2.69,1.56l-30.19,52.88c-2.61,4.52-5.32,9.89-8.07,15.96l-3.54,7.77-1.55,3.17-5.42-11.2c-3.25-6.61-6.04-11.95-8.29-15.88l-30.45-52.72c-.55-.96-1.58-1.55-2.69-1.55h-52.72c-1.71,0-3.1,1.39-3.1,3.1v113.8c0,1.71,1.39,3.1,3.1,3.1h32.25c1.71,0,3.1-1.39,3.1-3.1v-62.1c0-2.67-.25-8.14-.77-16.74l-.17-2.8,1.71,3.5c3.09,6.31,5.97,11.72,8.56,16.09l37.87,63.64c.56.94,1.57,1.52,2.67,1.52h29.43c1.1,0,2.12-.58,2.67-1.53l37.61-64.14c2.94-4.96,5.75-10.4,8.35-16.16l1.52-3.34-.27,2.96c-.35,3.86-.53,9.42-.53,17.01v62.1c0,1.71,1.39,3.1,3.1,3.1h32.25c1.71,0,3.1-1.39,3.1-3.1V43.1c0-1.71-1.39-3.1-3.1-3.1Z"/>
    <path class="cls-1" d="M615.44,40h-112.86c-1.71,0-3.1,1.39-3.1,3.1v113.8c0,1.71,1.39,3.1,3.1,3.1h32.76c1.71,0,3.1-1.39,3.1-3.1v-43.65h72.9c1.71,0,3.1-1.39,3.1-3.1v-18.08c0-1.71-1.39-3.1-3.1-3.1h-72.9v-24.68h77c1.71,0,3.1-1.39,3.1-3.1v-18.08c0-1.71-1.39-3.1-3.1-3.1Z"/>
  </g>
</svg>